M48
; DRILL file {KiCad 7.0.10} date Saturday, August 31, 2024 at 08:32:21 PM
; FORMAT={-:-/ absolute / inch / decimal}
; #@! TF.CreationDate,2024-08-31T20:32:21+01:00
; #@! TF.GenerationSoftware,Kicad,Pcbnew,7.0.10
; #@! TF.FileFunction,Plated,1,2,PTH
FMAT,2
INCH
; #@! TA.AperFunction,Plated,PTH,ViaDrill
T1C0.0157
; #@! TA.AperFunction,Plated,PTH,ComponentDrill
T2C0.0197
; #@! TA.AperFunction,Plated,PTH,ComponentDrill
T3C0.0354
%
G90
G05
T1
X4.7589Y-1.7504
X4.7589Y-1.9915
X4.7648Y-2.313
X4.7648Y-2.5541
X4.7737Y-2.8709
X4.7737Y-3.112
X4.7772Y-3.9925
X4.7772Y-4.2337
X4.7796Y-3.4335
X4.7796Y-3.6746
X4.7831Y-4.5551
X4.7831Y-4.7963
X4.7919Y-5.113
X4.7919Y-5.3541
X4.7978Y-5.6756
X4.7978Y-5.9167
X5.2345Y-1.9853
X5.2404Y-2.5479
X5.2493Y-3.1058
X5.2525Y-1.8215
X5.2528Y-4.2274
X5.2552Y-3.6684
X5.2584Y-2.3841
X5.2587Y-4.79
X5.2672Y-2.9419
X5.2675Y-5.3479
X5.2707Y-4.0636
X5.2731Y-3.5045
X5.2735Y-5.9105
X5.2746Y-1.7425
X5.2766Y-4.6262
X5.2786Y-1.8528
X5.2786Y-1.9591
X5.2806Y-2.3051
X5.2845Y-2.4154
X5.2845Y-2.5217
X5.2855Y-5.1841
X5.2894Y-2.863
X5.2914Y-5.7467
X5.2929Y-3.9846
X5.2933Y-2.9732
X5.2933Y-3.0795
X5.2953Y-3.4256
X5.2969Y-4.0949
X5.2969Y-4.2012
X5.2988Y-4.5472
X5.2993Y-3.5358
X5.2993Y-3.6421
X5.3028Y-4.6575
X5.3028Y-4.7638
X5.3077Y-5.1051
X5.3116Y-5.2154
X5.3116Y-5.3217
X5.3136Y-5.6677
X5.3175Y-5.778
X5.3175Y-5.8843
X5.4479Y-1.7386
X5.4538Y-2.3012
X5.4626Y-2.8591
X5.4661Y-3.9807
X5.4685Y-3.4217
X5.472Y-4.5433
X5.4809Y-5.1012
X5.4868Y-5.6638
X6.4128Y-1.7504
X6.4128Y-1.9915
X6.4187Y-2.313
X6.4187Y-2.5541
X6.4276Y-2.8709
X6.4276Y-3.112
X6.4311Y-3.9925
X6.4311Y-4.2337
X6.4335Y-3.4335
X6.4335Y-3.6746
X6.437Y-4.5551
X6.437Y-4.7963
X6.4459Y-5.113
X6.4459Y-5.3541
X6.4518Y-5.6756
X6.4518Y-5.9167
X6.8885Y-1.9853
X6.8944Y-2.5479
X6.9032Y-3.1058
X6.9064Y-1.8215
X6.9067Y-4.2274
X6.9091Y-3.6684
X6.9123Y-2.3841
X6.9126Y-4.79
X6.9212Y-2.9419
X6.9215Y-5.3479
X6.9247Y-4.0636
X6.9271Y-3.5045
X6.9274Y-5.9105
X6.9286Y-1.7425
X6.9306Y-4.6262
X6.9325Y-1.8528
X6.9325Y-1.9591
X6.9345Y-2.3051
X6.9384Y-2.4154
X6.9384Y-2.5217
X6.9394Y-5.1841
X6.9433Y-2.863
X6.9453Y-5.7467
X6.9469Y-3.9846
X6.9473Y-2.9732
X6.9473Y-3.0795
X6.9493Y-3.4256
X6.9508Y-4.0949
X6.9508Y-4.2012
X6.9528Y-4.5472
X6.9532Y-3.5358
X6.9532Y-3.6421
X6.9567Y-4.6575
X6.9567Y-4.7638
X6.9616Y-5.1051
X6.9656Y-5.2154
X6.9656Y-5.3217
X6.9675Y-5.6677
X6.9715Y-5.778
X6.9715Y-5.8843
X7.1018Y-1.7386
X7.1077Y-2.3012
X7.1166Y-2.8591
X7.1201Y-3.9807
X7.1225Y-3.4217
X7.126Y-4.5433
X7.1348Y-5.1012
X7.1407Y-5.6638
T2
X5.2313Y-1.6835
X5.2313Y-2.0378
X5.2372Y-2.2461
X5.2372Y-2.6004
X5.2461Y-2.8039
X5.2461Y-3.1583
X5.2496Y-3.9256
X5.2496Y-4.2799
X5.252Y-3.3665
X5.252Y-3.7209
X5.2555Y-4.4882
X5.2555Y-4.8425
X5.2644Y-5.0461
X5.2644Y-5.4004
X5.2703Y-5.6087
X5.2703Y-5.963
X5.2707Y-1.6835
X5.2707Y-2.0378
X5.2766Y-2.2461
X5.2766Y-2.6004
X5.2855Y-2.8039
X5.2855Y-3.1583
X5.289Y-3.9256
X5.289Y-4.2799
X5.2914Y-3.3665
X5.2914Y-3.7209
X5.2949Y-4.4882
X5.2949Y-4.8425
X5.3037Y-5.0461
X5.3037Y-5.4004
X5.3096Y-5.6087
X5.3096Y-5.963
X5.3101Y-1.6835
X5.3101Y-2.0378
X5.316Y-2.2461
X5.316Y-2.6004
X5.3248Y-2.8039
X5.3248Y-3.1583
X5.3283Y-3.9256
X5.3283Y-4.2799
X5.3307Y-3.3665
X5.3307Y-3.7209
X5.3343Y-4.4882
X5.3343Y-4.8425
X5.3431Y-5.0461
X5.3431Y-5.4004
X5.349Y-5.6087
X5.349Y-5.963
X5.3495Y-1.6835
X5.3495Y-2.0378
X5.3554Y-2.2461
X5.3554Y-2.6004
X5.3642Y-2.8039
X5.3642Y-3.1583
X5.3677Y-3.9256
X5.3677Y-4.2799
X5.3701Y-3.3665
X5.3701Y-3.7209
X5.3736Y-4.4882
X5.3736Y-4.8425
X5.3825Y-5.0461
X5.3825Y-5.4004
X5.3884Y-5.6087
X5.3884Y-5.963
X6.8853Y-1.6835
X6.8853Y-2.0378
X6.8912Y-2.2461
X6.8912Y-2.6004
X6.9Y-2.8039
X6.9Y-3.1583
X6.9035Y-3.9256
X6.9035Y-4.2799
X6.9059Y-3.3665
X6.9059Y-3.7209
X6.9094Y-4.4882
X6.9094Y-4.8425
X6.9183Y-5.0461
X6.9183Y-5.4004
X6.9242Y-5.6087
X6.9242Y-5.963
X6.9246Y-1.6835
X6.9246Y-2.0378
X6.9306Y-2.2461
X6.9306Y-2.6004
X6.9394Y-2.8039
X6.9394Y-3.1583
X6.9429Y-3.9256
X6.9429Y-4.2799
X6.9453Y-3.3665
X6.9453Y-3.7209
X6.9488Y-4.4882
X6.9488Y-4.8425
X6.9577Y-5.0461
X6.9577Y-5.4004
X6.9636Y-5.6087
X6.9636Y-5.963
X6.964Y-1.6835
X6.964Y-2.0378
X6.9699Y-2.2461
X6.9699Y-2.6004
X6.9788Y-2.8039
X6.9788Y-3.1583
X6.9823Y-3.9256
X6.9823Y-4.2799
X6.9847Y-3.3665
X6.9847Y-3.7209
X6.9882Y-4.4882
X6.9882Y-4.8425
X6.997Y-5.0461
X6.997Y-5.4004
X7.003Y-5.6087
X7.003Y-5.963
X7.0034Y-1.6835
X7.0034Y-2.0378
X7.0093Y-2.2461
X7.0093Y-2.6004
X7.0182Y-2.8039
X7.0182Y-3.1583
X7.0217Y-3.9256
X7.0217Y-4.2799
X7.0241Y-3.3665
X7.0241Y-3.7209
X7.0276Y-4.4882
X7.0276Y-4.8425
X7.0364Y-5.0461
X7.0364Y-5.4004
X7.0423Y-5.6087
X7.0423Y-5.963
T3
X5.6014Y-1.8344
X5.6014Y-1.9344
X5.6073Y-2.397
X5.6073Y-2.497
X5.6162Y-2.9549
X5.6162Y-3.0549
X5.6197Y-4.0766
X5.6197Y-4.1766
X5.6221Y-3.5175
X5.6221Y-3.6175
X5.6256Y-4.6392
X5.6256Y-4.7392
X5.6344Y-5.197
X5.6344Y-5.297
X5.6404Y-5.7596
X5.6404Y-5.8596
X7.2554Y-1.8344
X7.2554Y-1.9344
X7.2613Y-2.397
X7.2613Y-2.497
X7.2701Y-2.9549
X7.2701Y-3.0549
X7.2736Y-4.0766
X7.2736Y-4.1766
X7.276Y-3.5175
X7.276Y-3.6175
X7.2795Y-4.6392
X7.2795Y-4.7392
X7.2884Y-5.197
X7.2884Y-5.297
X7.2943Y-5.7596
X7.2943Y-5.8596
M30
